<svg width="37" height="37" viewBox="0 0 37 37" fill="none" xmlns="http://www.w3.org/2000/svg">
<circle cx="18.5" cy="18.5" r="18.5" fill="white"/>
<path d="M28 11.9375V15.6875L18.5 19.4375L9 15.6875V11.9375C9 11.6889 9.10009 11.4504 9.27825 11.2746C9.45641 11.0988 9.69804 11 9.95 11H27.05C27.302 11 27.5436 11.0988 27.7218 11.2746C27.8999 11.4504 28 11.6889 28 11.9375ZM9 17.7069V25.0625C9 25.3111 9.10009 25.5496 9.27825 25.7254C9.45641 25.9012 9.69804 26 9.95 26H27.05C27.302 26 27.5436 25.9012 27.7218 25.7254C27.8999 25.5496 28 25.3111 28 25.0625V17.7069L18.5 21.4569L9 17.7069Z" fill="#00613C"/>
</svg>
