<svg width="76" height="76" viewBox="0 0 76 76" fill="none" xmlns="http://www.w3.org/2000/svg">
<rect width="76" height="76" rx="16" fill="white"/>
<path d="M58 24V32L38 40L18 32V24C18 23.4696 18.2107 22.9609 18.5858 22.5858C18.9609 22.2107 19.4696 22 20 22H56C56.5304 22 57.0391 22.2107 57.4142 22.5858C57.7893 22.9609 58 23.4696 58 24ZM18 36.308V52C18 52.5304 18.2107 53.0391 18.5858 53.4142C18.9609 53.7893 19.4696 54 20 54H56C56.5304 54 57.0391 53.7893 57.4142 53.4142C57.7893 53.0391 58 52.5304 58 52V36.308L38 44.308L18 36.308Z" fill="#00613C"/>
</svg>
