<svg width="76" height="76" viewBox="0 0 76 76" fill="none" xmlns="http://www.w3.org/2000/svg">
<rect width="76" height="76" rx="16" fill="white"/>
<path d="M33.9619 23.0437L35.4628 25.7329C36.8172 28.1599 36.2735 31.3436 34.1402 33.4768C34.1402 33.4768 31.553 36.0645 36.2442 40.7559C40.9339 45.4457 43.5232 42.8598 43.5232 42.8598C45.6565 40.7265 48.8401 40.1829 51.2671 41.5373L53.9563 43.0381C57.6211 45.0833 58.0538 50.2226 54.8327 53.4439C52.8971 55.3795 50.5259 56.8856 47.9047 56.9848C43.4922 57.1522 35.9986 56.0355 28.4816 48.5185C20.9646 41.0015 19.8479 33.5079 20.0152 29.0953C20.1145 26.4741 21.6206 24.1029 23.5562 22.1673C26.7774 18.9461 31.9167 19.379 33.9619 23.0437Z" fill="#00613C"/>
</svg>
