<svg width="37" height="37" viewBox="0 0 37 37" fill="none" xmlns="http://www.w3.org/2000/svg">
<circle cx="18.5" cy="18.5" r="18.5" fill="white"/>
<path fill-rule="evenodd" clip-rule="evenodd" d="M13.8592 26V15.2043H10.2154V25.9999H13.8592V26ZM12.0377 13.7309C13.308 13.7309 14.0993 12.9012 14.0993 11.8652C14.0753 10.8063 13.308 10 12.0615 10C10.8149 10 10 10.8063 10 11.8653C10 12.9012 10.7909 13.7309 12.0137 13.7309L12.0377 13.7309ZM15.876 26C15.876 26 15.9238 16.2172 15.876 15.2043H19.5204V16.7699H19.4962C19.9754 16.0332 20.8387 14.9508 22.8044 14.9508C25.2025 14.9508 27 16.4938 27 19.8098V26H23.3562V20.2246C23.3562 18.7734 22.829 17.7832 21.5099 17.7832C20.5034 17.7832 19.9036 18.4508 19.6402 19.0961C19.5438 19.3258 19.5204 19.6484 19.5204 19.9711V26H15.876Z" fill="#00613C"/>
</svg>
