<svg width="26" height="36" viewBox="0 0 26 36" fill="none" xmlns="http://www.w3.org/2000/svg">
<path fill-rule="evenodd" clip-rule="evenodd" d="M13 10.125C11.2049 10.125 9.75 11.6359 9.75 13.5C9.75 15.3641 11.2049 16.875 13 16.875C14.7951 16.875 16.25 15.3641 16.25 13.5C16.25 11.6359 14.7951 10.125 13 10.125ZM13 19.125C10.0089 19.125 7.58333 16.6072 7.58333 13.5C7.58333 10.3927 10.0089 7.875 13 7.875C15.9911 7.875 18.4167 10.3927 18.4167 13.5C18.4167 16.6072 15.9911 19.125 13 19.125ZM13 0C5.82075 0 0 6.04462 0 13.5C0 19.1452 10.8387 36.0124 13 36C15.1277 36.0124 26 19.0687 26 13.5C26 6.04462 20.1793 0 13 0Z" fill="white"/>
</svg>
