<svg width="76" height="76" viewBox="0 0 76 76" fill="none" xmlns="http://www.w3.org/2000/svg">
<rect width="76" height="76" rx="16" fill="white"/>
<path fill-rule="evenodd" clip-rule="evenodd" d="M38.5 27.5C36.0835 27.5 34.125 29.5145 34.125 32C34.125 34.4855 36.0835 36.5 38.5 36.5C40.9165 36.5 42.875 34.4855 42.875 32C42.875 29.5145 40.9165 27.5 38.5 27.5ZM38.5 39.5C34.4735 39.5 31.2083 36.143 31.2083 32C31.2083 27.857 34.4735 24.5 38.5 24.5C42.5265 24.5 45.7917 27.857 45.7917 32C45.7917 36.143 42.5265 39.5 38.5 39.5ZM38.5 14C28.8356 14 21 22.0595 21 32C21 39.527 35.5906 62.0165 38.5 62C41.3642 62.0165 56 39.425 56 32C56 22.0595 48.1644 14 38.5 14Z" fill="#00613C"/>
</svg>
