<svg width="76" height="76" viewBox="0 0 76 76" fill="none" xmlns="http://www.w3.org/2000/svg">
<circle cx="38" cy="38" r="38" fill="white"/>
<path d="M38 16C25.856 16 16 25.856 16 38C16 50.144 25.856 60 38 60C50.144 60 60 50.144 60 38C60 25.856 50.144 16 38 16ZM41.102 51.398V55.6H35.228V51.354C31.466 50.562 28.276 48.142 28.034 43.874H32.346C32.566 46.184 34.15 47.988 38.176 47.988C42.488 47.988 43.456 45.832 43.456 44.49C43.456 42.664 42.488 40.948 37.582 39.782C32.126 38.462 28.386 36.218 28.386 31.708C28.386 27.924 31.444 25.46 35.228 24.646V20.4H41.102V24.69C45.194 25.68 47.24 28.782 47.372 32.148H43.06C42.95 29.706 41.652 28.034 38.176 28.034C34.876 28.034 32.896 29.53 32.896 31.642C32.896 33.49 34.326 34.7 38.77 35.844C43.214 36.988 47.966 38.902 47.966 44.446C47.944 48.472 44.93 50.672 41.102 51.398Z" fill="#00613C"/>
</svg>
