<svg width="37" height="37" viewBox="0 0 37 37" fill="none" xmlns="http://www.w3.org/2000/svg">
<circle cx="18.5" cy="18.5" r="18.5" fill="white"/>
<path d="M16.1696 10.563L16.9403 11.9439C17.6359 13.1902 17.3567 14.8251 16.2612 15.9205C16.2612 15.9205 14.9326 17.2493 17.3416 19.6584C19.7498 22.0667 21.0795 20.7388 21.0795 20.7388C22.175 19.6433 23.8098 19.3642 25.0561 20.0597L26.437 20.8304C28.319 21.8806 28.5411 24.5197 26.8871 26.1739C25.8931 27.1678 24.6755 27.9413 23.3294 27.9922C21.0636 28.0782 17.2155 27.5047 13.3554 23.6446C9.49534 19.7845 8.92188 15.9365 9.00778 13.6706C9.05881 12.3245 9.8322 11.1069 10.8262 10.113C12.4803 8.45883 15.1194 8.68108 16.1696 10.563Z" fill="#00613C"/>
</svg>
