<svg width="88" height="79" viewBox="0 0 88 79" fill="none" xmlns="http://www.w3.org/2000/svg">
<rect width="88" height="79" rx="10" fill="#00613C"/>
<path d="M38.8487 21.455L40.5523 24.5077C42.0898 27.2625 41.4726 30.8765 39.0511 33.298C39.0511 33.298 36.1142 36.2354 41.4393 41.5607C46.7628 46.8843 49.702 43.949 49.702 43.949C52.1236 41.5274 55.7374 40.9103 58.4923 42.4477L61.545 44.1514C65.7051 46.4729 66.1962 52.3067 62.5398 55.9634C60.3427 58.1605 57.651 59.8702 54.6756 59.9828C49.6668 60.1728 41.1605 58.9052 32.6277 50.3724C24.095 41.8395 22.8273 33.3332 23.0172 28.3244C23.13 25.349 24.8396 22.6574 27.0368 20.4602C30.6932 16.8037 36.5271 17.295 38.8487 21.455Z" fill="white"/>
</svg>
