<svg width="88" height="88" viewBox="0 0 88 88" fill="none" xmlns="http://www.w3.org/2000/svg">
<path d="M63.5556 0C66.2557 0 68.4444 2.18885 68.4444 4.88889V9.77778H78.2222C83.377 9.77778 87.5999 13.7665 87.9732 18.8258L88 19.5556V78.2222C88 83.377 84.0114 87.5999 78.952 87.9732L78.2222 88H9.77778C4.62312 88 0.400082 84.0114 0.0268193 78.952L0 78.2222V19.5556C0 14.4009 3.98873 10.1779 9.04805 9.8046L9.77778 9.77778H19.5556V4.88889C19.5556 2.18885 21.7444 0 24.4444 0C27.1445 0 29.3333 2.18885 29.3333 4.88889V9.77778H58.6667V4.88889C58.6667 2.18885 60.8554 0 63.5556 0ZM57.8067 31.1851L37.0651 51.9268L30.1511 45.013C28.2419 43.1039 25.1464 43.1039 23.2372 45.013C21.3279 46.9221 21.3279 50.0177 23.2372 51.9268L33.5735 62.2634C35.5016 64.1916 38.6281 64.1916 40.5568 62.2634L64.7206 38.0991C66.6302 36.19 66.6302 33.0944 64.7206 31.1851C62.8115 29.2759 59.7158 29.2759 57.8067 31.1851Z" fill="#00613C"/>
</svg>
