<svg width="36" height="26" viewBox="0 0 36 26" fill="none" xmlns="http://www.w3.org/2000/svg">
<path d="M36 22C36 23.0609 35.5786 24.0783 34.8284 24.8284C34.0783 25.5786 33.0609 26 32 26H4C2.93913 26 1.92172 25.5786 1.17157 24.8284C0.421427 24.0783 0 23.0609 0 22V4C0 2.93913 0.421427 1.92172 1.17157 1.17157C1.92172 0.421427 2.93913 0 4 0H32C33.0609 0 34.0783 0.421427 34.8284 1.17157C35.5786 1.92172 36 2.93913 36 4V22Z" fill="#C60A1D"/>
<path d="M0 7H36V19H0V7Z" fill="#FFC400"/>
<path d="M9 12V15C9 15.7956 9.31607 16.5587 9.87868 17.1213C10.4413 17.6839 11.2044 18 12 18C12.7956 18 13.5587 17.6839 14.1213 17.1213C14.6839 16.5587 15 15.7956 15 15V12H9Z" fill="#EA596E"/>
<path d="M12 11H15V14H12V11Z" fill="#F4A2B2"/>
<path d="M9 11H12V14H9V11Z" fill="#DD2E44"/>
<path d="M12 11C13.6569 11 15 10.3284 15 9.5C15 8.67157 13.6569 8 12 8C10.3431 8 9 8.67157 9 9.5C9 10.3284 10.3431 11 12 11Z" fill="#EA596E"/>
<path d="M12 9.5C13.6569 9.5 15 9.16421 15 8.75C15 8.33579 13.6569 8 12 8C10.3431 8 9 8.33579 9 8.75C9 9.16421 10.3431 9.5 12 9.5Z" fill="#FFAC33"/>
<path d="M7 11H8V18H7V11ZM16 11H17V18H16V11Z" fill="#99AAB5"/>
<path d="M6 17H9V18H6V17ZM15 17H18V18H15V17ZM7 10H8V11H7V10ZM16 10H17V11H16V10Z" fill="#66757F"/>
</svg>
