<svg width="76" height="76" viewBox="0 0 76 76" fill="none" xmlns="http://www.w3.org/2000/svg">
<circle cx="38" cy="38" r="38" fill="white"/>
<path d="M31.7369 23.4984C34.5235 18.4995 35.9168 16 38 16C40.0832 16 41.4764 18.4995 44.2629 23.4984L44.9839 24.7917C45.7759 26.2123 46.1716 26.9226 46.7892 27.3912C47.4065 27.8598 48.1752 28.0338 49.713 28.3817L51.1131 28.6985C56.5242 29.9229 59.2299 30.535 59.8737 32.605C60.5174 34.6749 58.6729 36.8321 54.9837 41.1458L54.0294 42.2619C52.9811 43.4877 52.4568 44.1006 52.221 44.859C51.9854 45.6173 52.0646 46.4351 52.223 48.0708L52.3673 49.5597C52.925 55.3154 53.2039 58.1932 51.5187 59.4725C49.8333 60.7518 47.3 59.5854 42.2334 57.2527L40.9227 56.649C39.483 55.9862 38.7632 55.6546 38 55.6546C37.2368 55.6546 36.517 55.9862 35.0773 56.649L33.7665 57.2527C28.6999 59.5854 26.1666 60.7518 24.4813 59.4725C22.7961 58.1932 23.0749 55.3154 23.6327 49.5597L23.7769 48.0708C23.9355 46.4351 24.0147 45.6173 23.7789 44.859C23.5431 44.1006 23.0189 43.4877 21.9706 42.2619L21.0162 41.1458C17.3272 36.8321 15.4826 34.6749 16.1263 32.605C16.77 30.535 19.4757 29.9229 24.887 28.6985L26.2869 28.3817C27.8247 28.0338 28.5935 27.8598 29.2109 27.3912C29.8282 26.9226 30.2242 26.2123 31.016 24.7917L31.7369 23.4984Z" fill="#00613C"/>
</svg>
