<svg width="38" height="26" viewBox="0 0 38 26" fill="none" xmlns="http://www.w3.org/2000/svg">
<mask id="mask0_62_44" style="mask-type:luminance" maskUnits="userSpaceOnUse" x="0" y="0" width="38" height="26">
<path d="M34.7303 0H3.5303C2.09436 0 0.930298 1.16406 0.930298 2.6V23.4C0.930298 24.8359 2.09436 26 3.5303 26H34.7303C36.1662 26 37.3303 24.8359 37.3303 23.4V2.6C37.3303 1.16406 36.1662 0 34.7303 0Z" fill="white"/>
</mask>
<g mask="url(#mask0_62_44)">
<path d="M34.7303 0H3.5303C2.09436 0 0.930298 1.16406 0.930298 2.6V23.4C0.930298 24.8359 2.09436 26 3.5303 26H34.7303C36.1662 26 37.3303 24.8359 37.3303 23.4V2.6C37.3303 1.16406 36.1662 0 34.7303 0Z" fill="white"/>
<mask id="mask1_62_44" style="mask-type:alpha" maskUnits="userSpaceOnUse" x="0" y="0" width="38" height="26">
<path d="M34.7303 0H3.5303C2.09436 0 0.930298 1.16406 0.930298 2.6V23.4C0.930298 24.8359 2.09436 26 3.5303 26H34.7303C36.1662 26 37.3303 24.8359 37.3303 23.4V2.6C37.3303 1.16406 36.1662 0 34.7303 0Z" fill="white"/>
</mask>
<g mask="url(#mask1_62_44)">
<path fill-rule="evenodd" clip-rule="evenodd" d="M37.3303 0H0.930298V1.73333H37.3303V0ZM37.3303 3.46667H0.930298V5.2H37.3303V3.46667ZM0.930298 6.93333H37.3303V8.66667H0.930298V6.93333ZM37.3303 10.4H0.930298V12.1333H37.3303V10.4ZM0.930298 13.8667H37.3303V15.6H0.930298V13.8667ZM37.3303 17.3333H0.930298V19.0667H37.3303V17.3333ZM0.930298 20.8H37.3303V22.5333H0.930298V20.8ZM37.3303 24.2667H0.930298V26H37.3303V24.2667Z" fill="#D02F44"/>
<path d="M16.5303 0H0.930298V12.1333H16.5303V0Z" fill="#46467F"/>
<g filter="url(#filter0_d_62_44)">
<path fill-rule="evenodd" clip-rule="evenodd" d="M4.39692 2.60006C4.39692 3.0787 4.00889 3.46673 3.53025 3.46673C3.0516 3.46673 2.66357 3.0787 2.66357 2.60006C2.66357 2.12142 3.0516 1.7334 3.53025 1.7334C4.00889 1.7334 4.39692 2.12142 4.39692 2.60006ZM7.86357 2.60006C7.86357 3.0787 7.47556 3.46673 6.99692 3.46673C6.51827 3.46673 6.13024 3.0787 6.13024 2.60006C6.13024 2.12142 6.51827 1.7334 6.99692 1.7334C7.47556 1.7334 7.86357 2.12142 7.86357 2.60006ZM10.4636 3.46673C10.9422 3.46673 11.3302 3.0787 11.3302 2.60006C11.3302 2.12142 10.9422 1.7334 10.4636 1.7334C9.98493 1.7334 9.59692 2.12142 9.59692 2.60006C9.59692 3.0787 9.98493 3.46673 10.4636 3.46673ZM14.7969 2.60006C14.7969 3.0787 14.4089 3.46673 13.9302 3.46673C13.4516 3.46673 13.0636 3.0787 13.0636 2.60006C13.0636 2.12142 13.4516 1.7334 13.9302 1.7334C14.4089 1.7334 14.7969 2.12142 14.7969 2.60006ZM5.26357 5.20006C5.74222 5.20006 6.13024 4.81205 6.13024 4.3334C6.13024 3.85475 5.74222 3.46673 5.26357 3.46673C4.78493 3.46673 4.39692 3.85475 4.39692 4.3334C4.39692 4.81205 4.78493 5.20006 5.26357 5.20006ZM9.59692 4.3334C9.59692 4.81205 9.20889 5.20006 8.73024 5.20006C8.2516 5.20006 7.86357 4.81205 7.86357 4.3334C7.86357 3.85475 8.2516 3.46673 8.73024 3.46673C9.20889 3.46673 9.59692 3.85475 9.59692 4.3334ZM12.1969 5.20006C12.6756 5.20006 13.0636 4.81205 13.0636 4.3334C13.0636 3.85475 12.6756 3.46673 12.1969 3.46673C11.7183 3.46673 11.3302 3.85475 11.3302 4.3334C11.3302 4.81205 11.7183 5.20006 12.1969 5.20006ZM14.7969 6.06673C14.7969 6.54537 14.4089 6.9334 13.9302 6.9334C13.4516 6.9334 13.0636 6.54537 13.0636 6.06673C13.0636 5.58808 13.4516 5.20006 13.9302 5.20006C14.4089 5.20006 14.7969 5.58808 14.7969 6.06673ZM10.4636 6.9334C10.9422 6.9334 11.3302 6.54537 11.3302 6.06673C11.3302 5.58808 10.9422 5.20006 10.4636 5.20006C9.98493 5.20006 9.59692 5.58808 9.59692 6.06673C9.59692 6.54537 9.98493 6.9334 10.4636 6.9334ZM7.86357 6.06673C7.86357 6.54537 7.47556 6.9334 6.99692 6.9334C6.51827 6.9334 6.13024 6.54537 6.13024 6.06673C6.13024 5.58808 6.51827 5.20006 6.99692 5.20006C7.47556 5.20006 7.86357 5.58808 7.86357 6.06673ZM3.53025 6.9334C4.00889 6.9334 4.39692 6.54537 4.39692 6.06673C4.39692 5.58808 4.00889 5.20006 3.53025 5.20006C3.0516 5.20006 2.66357 5.58808 2.66357 6.06673C2.66357 6.54537 3.0516 6.9334 3.53025 6.9334ZM6.13024 7.80006C6.13024 8.27872 5.74222 8.66673 5.26357 8.66673C4.78493 8.66673 4.39692 8.27872 4.39692 7.80006C4.39692 7.32141 4.78493 6.9334 5.26357 6.9334C5.74222 6.9334 6.13024 7.32141 6.13024 7.80006ZM8.73024 8.66673C9.20889 8.66673 9.59692 8.27872 9.59692 7.80006C9.59692 7.32141 9.20889 6.9334 8.73024 6.9334C8.2516 6.9334 7.86357 7.32141 7.86357 7.80006C7.86357 8.27872 8.2516 8.66673 8.73024 8.66673ZM13.0636 7.80006C13.0636 8.27872 12.6756 8.66673 12.1969 8.66673C11.7183 8.66673 11.3302 8.27872 11.3302 7.80006C11.3302 7.32141 11.7183 6.9334 12.1969 6.9334C12.6756 6.9334 13.0636 7.32141 13.0636 7.80006ZM13.9302 10.4001C14.4089 10.4001 14.7969 10.012 14.7969 9.5334C14.7969 9.05475 14.4089 8.66673 13.9302 8.66673C13.4516 8.66673 13.0636 9.05475 13.0636 9.5334C13.0636 10.012 13.4516 10.4001 13.9302 10.4001ZM11.3302 9.5334C11.3302 10.012 10.9422 10.4001 10.4636 10.4001C9.98493 10.4001 9.59692 10.012 9.59692 9.5334C9.59692 9.05475 9.98493 8.66673 10.4636 8.66673C10.9422 8.66673 11.3302 9.05475 11.3302 9.5334ZM6.99692 10.4001C7.47556 10.4001 7.86357 10.012 7.86357 9.5334C7.86357 9.05475 7.47556 8.66673 6.99692 8.66673C6.51827 8.66673 6.13024 9.05475 6.13024 9.5334C6.13024 10.012 6.51827 10.4001 6.99692 10.4001ZM4.39692 9.5334C4.39692 10.012 4.00889 10.4001 3.53025 10.4001C3.0516 10.4001 2.66357 10.012 2.66357 9.5334C2.66357 9.05475 3.0516 8.66673 3.53025 8.66673C4.00889 8.66673 4.39692 9.05475 4.39692 9.5334Z" fill="url(#paint0_linear_62_44)"/>
</g>
</g>
</g>
<defs>
<filter id="filter0_d_62_44" x="2.66357" y="1.7334" width="12.1333" height="37.2384" filterUnits="userSpaceOnUse" color-interpolation-filters="sRGB">
<feFlood flood-opacity="0" result="BackgroundImageFix"/>
<feColorMatrix in="SourceAlpha" type="matrix" values="0 0 0 0 0 0 0 0 0 0 0 0 0 0 0 0 0 0 127 0" result="hardAlpha"/>
<feOffset dy="28.5714"/>
<feColorMatrix type="matrix" values="0 0 0 0 0 0 0 0 0 0 0 0 0 0 0 0 0 0 0.06 0"/>
<feBlend mode="normal" in2="BackgroundImageFix" result="effect1_dropShadow_62_44"/>
<feBlend mode="normal" in="SourceGraphic" in2="effect1_dropShadow_62_44" result="shape"/>
</filter>
<linearGradient id="paint0_linear_62_44" x1="2.66357" y1="1.7334" x2="2.66357" y2="10.4001" gradientUnits="userSpaceOnUse">
<stop stop-color="white"/>
<stop offset="1" stop-color="#F0F0F0"/>
</linearGradient>
</defs>
</svg>
